<svg xmlns="http://www.w3.org/2000/svg" viewBox="12 16 132 130" fill="none">
  <defs>
    <linearGradient id="g1" x1="0%" y1="0%" x2="100%" y2="100%">
      <stop offset="0%" stop-color="#2196f3"/>
      <stop offset="100%" stop-color="#345580"/>
    </linearGradient>
    <linearGradient id="g2" x1="100%" y1="0%" x2="0%" y2="0%">
      <stop offset="0%" stop-color="#2196f3"/>
      <stop offset="100%" stop-color="#345580"/>
    </linearGradient>
    <linearGradient id="g3" x1="0%" y1="0%" x2="100%" y2="100%">
      <stop offset="0%" stop-color="#4dabf5"/>
      <stop offset="50%" stop-color="#58a0c3"/>
      <stop offset="100%" stop-color="#4dabf5"/>
    </linearGradient>
  </defs>
  <g transform="matrix(5.5 0 0 5.5 75 75)" stroke="url(#g3)" stroke-width="1.5">
    <circle r="2" fill="url(#g3)"/>
    <ellipse rx="10" ry="4.5"/>
    <ellipse rx="10" ry="4.5" transform="rotate(60)"/>
    <ellipse rx="10" ry="4.5" transform="rotate(120)"/>
  </g>
  <circle cx="95" cy="95" r="38" fill="#18181b"/>
  <g transform="matrix(3.2 0 0 3.2 70 70)">
    <circle cx="8" cy="8" r="8" fill="#fff"/>
    <circle cx="8" cy="8" r="8" fill="url(#g1)" opacity=".8"/>
    <path stroke="url(#g2)" stroke-width="4" stroke-linecap="round" d="M14 14l6 6"/>
    <circle cx="8" cy="8" r="8" stroke="url(#g1)" stroke-width="3"/>
    <path d="M6 5.5L4 8l2 2.5M10 10.5L12 8l-2-2.5" stroke="#fff" stroke-width="1.5" stroke-linecap="round" stroke-linejoin="round"/>
  </g>
</svg>
